<mxfile><diagram id="qvZ4fdEiblrsOR7_OkiZ" name="Page-7"><mxGraphModel dx="993" dy="703" grid="1" gridSize="10" guides="1" tooltips="1" connect="1" arrows="1" fold="1" page="1" pageScale="1" pageWidth="850" pageHeight="1100" math="0" shadow="0"><root><mxCell id="0"/><mxCell id="1" parent="0"/><mxCell id="wTxdUkZhkhx77jbvx3r5-1" value="User" style="rounded=0;whiteSpace=wrap;html=1;" vertex="1" connectable="0" parent="1"><mxGeometry x="150" y="60" width="80" height="30" as="geometry"/></mxCell><mxCell id="wTxdUkZhkhx77jbvx3r5-2" value="Alarm System" style="rounded=0;whiteSpace=wrap;html=1;" vertex="1" connectable="0" parent="1"><mxGeometry x="350" y="10" width="120" height="30" as="geometry"/></mxCell><mxCell id="wTxdUkZhkhx77jbvx3r5-3" value="1. Activate Alarm" style="rounded=0;whiteSpace=wrap;html=1;" vertex="1" connectable="0" parent="1"><mxGeometry x="300" y="60" width="120" height="30" as="geometry"/></mxCell><mxCell id="wTxdUkZhkhx77jbvx3r5-4" value="2. Check Sensors" style="rounded=0;whiteSpace=wrap;html=1;" vertex="1" connectable="0" parent="1"><mxGeometry x="480" y="60" width="120" height="30" as="geometry"/></mxCell><mxCell id="wTxdUkZhkhx77jbvx3r5-5" value="3. Sound Alarm" style="rounded=0;whiteSpace=wrap;html=1;" vertex="1" connectable="0" parent="1"><mxGeometry x="660" y="60" width="120" height="30" as="geometry"/></mxCell><mxCell id="wTxdUkZhkhx77jbvx3r5-6" value="4. Enter Password" style="rounded=0;whiteSpace=wrap;html=1;" vertex="1" connectable="0" parent="1"><mxGeometry x="670" y="130" width="120" height="30" as="geometry"/></mxCell><mxCell id="wTxdUkZhkhx77jbvx3r5-7" value="6. Disable Alarm" style="rounded=0;whiteSpace=wrap;html=1;" vertex="1" connectable="0" parent="1"><mxGeometry x="670" y="260" width="120" height="30" as="geometry"/></mxCell><mxCell id="wTxdUkZhkhx77jbvx3r5-8" value="7. Reset Alarm" style="rounded=0;whiteSpace=wrap;html=1;" vertex="1" connectable="0" parent="1"><mxGeometry x="670" y="330" width="120" height="30" as="geometry"/></mxCell><mxCell id="wTxdUkZhkhx77jbvx3r5-9" style="edgeStyle=orthogonalEdgeStyle;rounded=0;orthogonalLoop=1;jettySize=auto;html=1;entryX=0;entryY=0.5;entryDx=0;entryDy=0;entryPerimeter=0;" edge="1" parent="1" target="wTxdUkZhkhx77jbvx3r5-3"><mxGeometry relative="1" as="geometry"><mxPoint x="230" y="75" as="sourcePoint"/></mxGeometry></mxCell><mxCell id="wTxdUkZhkhx77jbvx3r5-10" style="edgeStyle=orthogonalEdgeStyle;rounded=0;orthogonalLoop=1;jettySize=auto;html=1;entryX=0;entryY=0.5;entryDx=0;entryDy=0;entryPerimeter=0;" edge="1" parent="1"><mxGeometry relative="1" as="geometry"><mxPoint x="360" y="90" as="sourcePoint"/><mxPoint x="480" y="75" as="targetPoint"/><Array as="points"><mxPoint x="420" y="90"/><mxPoint x="420" y="75"/></Array></mxGeometry></mxCell><mxCell id="wTxdUkZhkhx77jbvx3r5-11" style="edgeStyle=orthogonalEdgeStyle;rounded=0;orthogonalLoop=1;jettySize=auto;html=1;" edge="1" parent="1"><mxGeometry relative="1" as="geometry"><mxPoint x="600" y="70" as="sourcePoint"/><mxPoint x="660" y="80" as="targetPoint"/><Array as="points"><mxPoint x="600" y="80"/></Array></mxGeometry></mxCell><mxCell id="wTxdUkZhkhx77jbvx3r5-14" style="edgeStyle=orthogonalEdgeStyle;rounded=0;orthogonalLoop=1;jettySize=auto;html=1;exitX=0;exitY=0.5;exitDx=0;exitDy=0;exitPerimeter=0;" edge="1" parent="1" source="wTxdUkZhkhx77jbvx3r5-8"><mxGeometry relative="1" as="geometry"><mxPoint x="150" y="70" as="targetPoint"/><Array as="points"><mxPoint x="60" y="345"/><mxPoint x="60" y="70"/></Array></mxGeometry></mxCell><mxCell id="wTxdUkZhkhx77jbvx3r5-15" style="edgeStyle=orthogonalEdgeStyle;rounded=0;orthogonalLoop=1;jettySize=auto;html=1;" edge="1" parent="1"><mxGeometry relative="1" as="geometry"><mxPoint x="190" y="90" as="sourcePoint"/><mxPoint x="670" y="150" as="targetPoint"/><Array as="points"><mxPoint x="190" y="150"/></Array></mxGeometry></mxCell><mxCell id="6835TQ7PXJTtw7VJoJ05-4" value="" style="endArrow=classic;html=1;" edge="1" parent="1"><mxGeometry width="50" height="50" relative="1" as="geometry"><mxPoint x="730" y="290" as="sourcePoint"/><mxPoint x="730" y="330" as="targetPoint"/></mxGeometry></mxCell><mxCell id="6835TQ7PXJTtw7VJoJ05-5" value="5. Password Corret" style="rounded=0;whiteSpace=wrap;html=1;" vertex="1" connectable="0" parent="1"><mxGeometry x="670" y="200" width="120" height="30" as="geometry"/></mxCell><mxCell id="6835TQ7PXJTtw7VJoJ05-6" value="" style="endArrow=classic;html=1;" edge="1" parent="1"><mxGeometry width="50" height="50" relative="1" as="geometry"><mxPoint x="730" y="160" as="sourcePoint"/><mxPoint x="730" y="200" as="targetPoint"/></mxGeometry></mxCell><mxCell id="6835TQ7PXJTtw7VJoJ05-7" value="" style="endArrow=classic;html=1;" edge="1" parent="1"><mxGeometry width="50" height="50" relative="1" as="geometry"><mxPoint x="730" y="230" as="sourcePoint"/><mxPoint x="730" y="260" as="targetPoint"/></mxGeometry></mxCell><mxCell id="6835TQ7PXJTtw7VJoJ05-8" value="8. Password Incorret" style="rounded=0;whiteSpace=wrap;html=1;" vertex="1" connectable="0" parent="1"><mxGeometry x="450" y="190" width="120" height="30" as="geometry"/></mxCell><mxCell id="6835TQ7PXJTtw7VJoJ05-10" style="edgeStyle=orthogonalEdgeStyle;rounded=0;orthogonalLoop=1;jettySize=auto;html=1;" edge="1" parent="1"><mxGeometry relative="1" as="geometry"><mxPoint x="690" y="160" as="sourcePoint"/><mxPoint x="570" y="200" as="targetPoint"/><Array as="points"><mxPoint x="690" y="180"/><mxPoint x="580" y="180"/></Array></mxGeometry></mxCell><mxCell id="6835TQ7PXJTtw7VJoJ05-11" style="edgeStyle=orthogonalEdgeStyle;rounded=0;orthogonalLoop=1;jettySize=auto;html=1;" edge="1" parent="1"><mxGeometry relative="1" as="geometry"><mxPoint x="450" y="210" as="sourcePoint"/><mxPoint x="170" y="90" as="targetPoint"/><Array as="points"><mxPoint x="170" y="210"/></Array></mxGeometry></mxCell></root></mxGraphModel></diagram></mxfile>